<?xml version="1.0" encoding="UTF-8"?>
<svg width="26px" height="45px" viewBox="0 0 26 45" version="1.1" xmlns="http://www.w3.org/2000/svg" xmlns:xlink="http://www.w3.org/1999/xlink">
    <!-- Generator: Sketch 45.2 (43514) - http://www.bohemiancoding.com/sketch -->
    <title>Page 1 Copy</title>
    <desc>Created with Sketch.</desc>
    <defs>
        <polygon id="path-1" points="12.3300534 8.22358876 0.00455887333 8.22358876 0.00455887333 0.00675050782 12.3300534 0.00675050782"></polygon>
        <polygon id="path-3" points="4.36111359e-06 0.00155040574 14.6844364 0.00155040574 14.6844364 4.65197862 4.36111359e-06 4.65197862 4.36111359e-06 0.00155040574"></polygon>
    </defs>
    <g id="Page-2" stroke="none" stroke-width="1" fill="none" fill-rule="evenodd">
        <g id="Page-1-Copy" transform="translate(13.353225, 22.302731) scale(1, -1) translate(-13.353225, -22.302731) translate(1.353225, 0.302731)">
            <path d="M21.1648486,19.167161 C23.1251988,16.0306006 23.3541677,14.1674838 23.3541677,11.6530079 C23.3541677,5.3014732 17.9300093,0.152286621 11.6568886,0.152286621 C5.30535393,0.152286621 0.0254773422,5.3014732 0.0254773422,11.6530079 C0.0254773422,14.1674838 0.222035124,16.0306006 2.18238534,19.167161 C3.05539464,20.5660669 11.6568886,29.6882299 11.6568886,43.6720615 C11.6568886,29.6882299 20.2907938,20.5660669 21.1648486,19.167161 Z" id="Imported-Layers-Copy" stroke="#FFD54F" fill="#37474F" stroke-linecap="round" stroke-linejoin="round" transform="translate(11.689823, 21.912174) scale(1, -1) translate(-11.689823, -21.912174) "></path>
            <g id="Group" transform="translate(11.827600, 32.138724) scale(1, -1) translate(-11.827600, -32.138724) translate(4.427601, 27.838724)">
                <g id="Group-3" transform="translate(2.348439, 0.002668)">
                    <mask id="mask-2" fill="white">
                        <use xlink:href="#path-1"></use>
                    </mask>
                    <g id="Clip-2"></g>
                    <path d="M12.3283049,0.0357058914 C11.9911908,0.300753709 11.6544692,0.566825596 11.3168972,0.830725214 C8.17613226,3.28610262 5.03517103,5.74095248 1.89497299,8.19781945 C1.84704435,8.2353066 1.82107392,8.23592725 1.78354654,8.17271423 C1.50737902,7.70725911 1.22813692,7.24546581 0.949876066,6.78252431 C0.89185145,6.77842803 0.857769347,6.72064568 0.824690301,6.66466321 C0.684044387,6.42667566 0.540040417,6.19275335 0.398435058,5.95594502 C0.289123746,5.77316413 0.176410766,5.5945726 0.0697379272,5.40868847 C0.0402567994,5.35729879 0.0042340011,5.30832965 0.00456108462,5.23338638 C0.0404312439,5.19068578 0.0849146025,5.17510751 0.127980599,5.15698458 C1.0702428,4.76063864 2.01073875,4.35572775 2.95208512,3.95500623 C3.97546404,3.51937325 4.99836323,3.08125768 6.02169853,2.64531438 C7.06099551,2.20257498 8.09996541,1.7582219 9.1396985,1.3175927 C9.6914884,1.08376349 10.242079,0.84419328 10.7941742,0.611977753 C11.0999536,0.483379444 11.4094619,0.37299716 11.7149143,0.242940328 C11.7810942,0.2147629 11.8479064,0.18438217 11.9096162,0.127965248 C11.9721109,0.0708035476 12.0550593,0.0937675313 12.1275846,0.0693139919 C12.1484744,0.0623006672 12.1697566,0.0582974862 12.1891636,0.0440536098 C12.2285008,0.0227033115 12.2730714,0.0405159151 12.3114492,0.00945247222 C12.3209782,0.00172540202 12.3349992,0.0106006714 12.3283049,0.0357058914" id="Fill-1" fill="#FEFEFE" mask="url(#mask-2)"></path>
                </g>
                <g id="Group-6" transform="translate(-0.000000, 0.000559)">
                    <mask id="mask-4" fill="white">
                        <use xlink:href="#path-3"></use>
                    </mask>
                    <g id="Clip-5"></g>
                    <path d="M14.6767434,0.0378117773 C14.6353128,0.0450733614 14.5938822,0.0523659778 14.5524517,0.0596275619 C14.2002917,0.201166386 13.8468889,0.33640563 13.4942929,0.475772186 C13.1029265,0.630468752 12.7077442,0.764777024 12.3136522,0.90479526 C11.6073917,1.1556923 10.9012401,1.40730308 10.1950014,1.65838631 C9.44955626,1.92337207 8.70413292,2.18866814 7.95868777,2.45384009 C7.21786541,2.71736732 6.47706485,2.98108074 5.73626429,3.24470107 C4.99315234,3.50912824 4.25001858,3.77349334 3.50686302,4.03776535 C2.95529118,4.23392122 2.40387198,4.43113219 1.85188583,4.62499165 C1.81837067,4.63675294 1.77685287,4.68655996 1.74687021,4.61099604 C1.30338857,4.19041378 0.859950544,3.76976946 0.416447098,3.34931133 C0.295644251,3.23480173 0.174383488,3.12128517 0.0539513362,3.00599977 C0.0353075756,2.98815613 0.0102311725,2.97841196 4.36111359e-06,2.93003243 C0.135089855,2.90228945 0.268016597,2.87436028 0.401074172,2.84776551 C1.41400822,2.6453411 2.42694227,2.44294772 3.43994173,2.24105085 C4.67906494,1.9940639 5.91829717,1.74806998 7.15737676,1.5007727 C8.1561808,1.3014205 9.15478859,1.10020635 10.1535708,0.900761046 C11.2607703,0.679717187 12.3680571,0.459821527 13.4752784,0.239274186 C13.8545645,0.163741299 14.2337415,0.087463634 14.6131147,0.0127996545 C14.6364467,0.00820685778 14.6631585,-0.01506745 14.6842227,0.0228541555 C14.6850077,0.0242816464 14.6835685,0.0291847672 14.6823256,0.0315742628 C14.6809737,0.0342120177 14.6786405,0.0357946706 14.6767434,0.0378117773" id="Fill-4" fill="#F3F3F3" mask="url(#mask-4)"></path>
                </g>
                <path d="M1.74686803,4.61154531 C2.55882016,4.32148537 3.37064146,4.03077375 4.18272442,3.74155168 C5.72387654,3.19268144 7.2651595,2.64468011 8.80642066,2.09636845 C10.4676342,1.50538722 12.1288914,0.914561159 13.7900832,0.323455806 C14.00465,0.247085044 14.2189333,0.169069564 14.4335655,0.0930091258 C14.4726629,0.0791376383 14.5127633,0.0709761143 14.5524277,0.0601768355 C14.5045426,0.100363807 14.4501378,0.114545619 14.3978916,0.136795857 C11.9500204,1.18050892 9.50208369,2.22384959 7.05410341,3.26709716 C5.53152963,3.91598486 4.00891224,4.56456224 2.48638207,5.21363614 C2.45227816,5.22815931 2.41906828,5.24690288 2.38544409,5.26369142 C2.3893909,5.34530666 2.3745195,5.42052922 2.35502532,5.4973034 C2.18313203,6.17405821 2.00593999,6.84808216 1.83624906,7.52595414 C1.82107238,7.58656043 1.78498417,7.62314765 1.77094138,7.68111619 C1.76130332,7.68092999 1.75164345,7.68071277 1.74200539,7.68052657 C1.73088455,7.65951763 1.73496219,7.63503306 1.73496219,7.61191391 C1.73476594,6.62893128 1.73478775,5.64594865 1.73478775,4.66299705 C1.73478775,4.64608438 1.73441706,4.62917172 1.73879997,4.61303487 C1.74143845,4.61204183 1.74414234,4.61154531 1.74686803,4.61154531" id="Fill-7" fill="#C5C5C5"></path>
                <path d="M1.77094356,7.68110998 C1.75897231,7.64204018 1.77360384,7.60840104 1.78236968,7.57411023 C1.97133673,6.83665603 2.16050003,6.09932596 2.34968514,5.36199589 C2.35864723,5.32711546 2.36643182,5.29124199 2.38544627,5.26368521 C2.5041994,5.49115278 2.64065864,5.69739418 2.76994385,5.91220052 C2.94550048,6.20387415 3.12212558,6.49424441 3.29831457,6.78520429 C3.14458531,6.85629954 2.99881509,6.95563429 2.84970862,7.04299053 C2.48961147,7.25394885 2.13047377,7.46819661 1.77094356,7.68110998" id="Fill-9" fill="#F3F3F3"></path>
            </g>
        </g>
    </g>
</svg>