<?xml version="1.0" encoding="UTF-8"?>
<svg width="32px" height="56px" viewBox="0 0 32 56" version="1.1" xmlns="http://www.w3.org/2000/svg" xmlns:xlink="http://www.w3.org/1999/xlink">
    <!-- Generator: Sketch 45.2 (43514) - http://www.bohemiancoding.com/sketch -->
    <title>Page 1 Copy</title>
    <desc>Created with Sketch.</desc>
    <defs>
        <polygon id="path-1" points="15.4125668 10.279486 0.00569859166 10.279486 0.00569859166 0.00843813477 15.4125668 0.00843813477"></polygon>
        <polygon id="path-3" points="5.45139199e-06 0.00193800718 18.3555455 0.00193800718 18.3555455 5.81497327 5.45139199e-06 5.81497327 5.45139199e-06 0.00193800718"></polygon>
    </defs>
    <g id="Page-2" stroke="none" stroke-width="1" fill="none" fill-rule="evenodd">
        <g id="Page-1-Copy" transform="translate(16.353225, 27.802731) scale(1, -1) translate(-16.353225, -27.802731) translate(1.353225, 0.302731)">
            <path d="M26.4560607,23.9589512 C28.9064985,20.0382508 29.1927096,17.7093547 29.1927096,14.5662599 C29.1927096,6.6268415 22.4125117,0.190358276 14.5711108,0.190358276 C6.63169242,0.190358276 0.0318466777,6.6268415 0.0318466777,14.5662599 C0.0318466777,17.7093547 0.277543905,20.0382508 2.72798168,23.9589512 C3.8192433,25.7075836 14.5711108,37.1102874 14.5711108,54.5900769 C14.5711108,37.1102874 25.3634922,25.7075836 26.4560607,23.9589512 Z" id="Imported-Layers-Copy" stroke="#374F3E" fill="#FFD54F" stroke-linecap="round" stroke-linejoin="round" transform="translate(14.612278, 27.390218) scale(1, -1) translate(-14.612278, -27.390218) "></path>
            <g id="Group" transform="translate(14.784501, 40.173405) scale(1, -1) translate(-14.784501, -40.173405) translate(5.534501, 34.798405)">
                <g id="Group-3" transform="translate(2.935548, 0.003334)">
                    <mask id="mask-2" fill="white">
                        <use xlink:href="#path-1"></use>
                    </mask>
                    <g id="Clip-2"></g>
                    <path d="M15.4103811,0.0446323643 C14.9889885,0.375942136 14.5680865,0.708531995 14.1461215,1.03840652 C10.2201653,4.10762828 6.29396378,7.1761906 2.36871624,10.2472743 C2.30880544,10.2941333 2.2763424,10.2949091 2.22943318,10.2158928 C1.88422378,9.63407388 1.53517115,9.05683226 1.18734508,8.47815538 C1.11481431,8.47303504 1.07221168,8.4008071 1.03086288,8.33082902 C0.855055484,8.03334457 0.675050521,7.74094168 0.498043823,7.44493128 C0.361404683,7.21645516 0.220513457,6.99321575 0.087172409,6.76086058 C0.0503209992,6.69662349 0.00529250138,6.63541206 0.00570135578,6.54173297 C0.0505390549,6.48835723 0.106143253,6.46888439 0.159975749,6.44623073 C1.3378035,5.9507983 2.51342344,5.44465968 3.6901064,4.94375779 C4.96933004,4.39921657 6.24795404,3.8515721 7.52712316,3.30664298 C8.82624439,2.75321873 10.1249568,2.19777737 11.4246231,1.64699088 C12.1143605,1.35470436 12.8025987,1.0552416 13.4927177,0.764972191 C13.874942,0.604224305 14.2618273,0.46624645 14.6436428,0.30367541 C14.7263677,0.268453624 14.809883,0.230477712 14.8870202,0.15995656 C14.9651387,0.0885044345 15.0688242,0.117209414 15.1594808,0.0866424899 C15.185593,0.077875834 15.2121958,0.0728718578 15.2364545,0.0550670123 C15.285626,0.0283791393 15.3413392,0.0506448938 15.3893115,0.0118155903 C15.4012228,0.00215675252 15.418749,0.0132508393 15.4103811,0.0446323643" id="Fill-1" fill="#FEFEFE" mask="url(#mask-2)"></path>
                </g>
                <g id="Group-6" transform="translate(-0.000000, 0.000698)">
                    <mask id="mask-4" fill="white">
                        <use xlink:href="#path-3"></use>
                    </mask>
                    <g id="Clip-5"></g>
                    <path d="M18.3459292,0.0472647217 C18.294141,0.0563417017 18.2423528,0.0654574723 18.1905646,0.0745344523 C17.7503647,0.251457982 17.3086111,0.420507038 16.8678661,0.594715232 C16.3786582,0.78808594 15.8846803,0.95597128 15.3920652,1.13099407 C14.5092396,1.44461537 13.6265502,1.75912885 12.7437518,2.07298289 C11.8119453,2.40421508 10.8801661,2.73583518 9.94835972,3.06730011 C9.02233176,3.39670915 8.09633106,3.72635093 7.17033036,4.05587634 C6.24144042,4.3864103 5.31252323,4.71686668 4.38357878,5.04720669 C3.69411397,5.29240152 3.00483997,5.53891523 2.31485729,5.78123957 C2.27296334,5.79594117 2.22106609,5.85819995 2.18358777,5.76374505 C1.62923572,5.23801722 1.07493818,4.71221182 0.520558872,4.18663916 C0.369555314,4.04350216 0.21797936,3.90160647 0.0674391703,3.75749971 C0.0441344695,3.73519517 0.0127889656,3.72301495 5.45139199e-06,3.66254054 C0.168862318,3.62786182 0.335020746,3.59295036 0.501342715,3.55970689 C1.76751028,3.30667637 3.03367784,3.05368464 4.29992717,2.80131357 C5.84883117,2.49257987 7.39787146,2.18508748 8.94672095,1.87596588 C10.195226,1.62677562 11.4434857,1.37525794 12.6919635,1.12595131 C14.0759629,0.849646484 15.4600714,0.574776908 16.844098,0.299092732 C17.3182056,0.204676624 17.7921768,0.109329543 18.2663934,0.0159995682 C18.2955584,0.0102585722 18.3289482,-0.0188343126 18.3552784,0.0285676944 C18.3562596,0.030352058 18.3544607,0.036480959 18.352907,0.0394678285 C18.3512171,0.0427650221 18.3483006,0.0447433383 18.3459292,0.0472647217" id="Fill-4" fill="#F3F3F3" mask="url(#mask-4)"></path>
                </g>
                <path d="M2.18358504,5.76443164 C3.1985252,5.40185671 4.21330182,5.03846719 5.22840552,4.67693961 C7.15484568,3.9908518 9.08144938,3.30585013 11.0080258,2.62046056 C13.0845428,1.88173403 15.1611143,1.14320145 17.237604,0.404319757 C17.5058125,0.308856304 17.7736666,0.211336955 18.0419569,0.116261407 C18.0908286,0.0989220479 18.1409542,0.0887201429 18.1905346,0.0752210444 C18.1306783,0.125454759 18.0626722,0.143182023 17.9973645,0.170994821 C14.9375255,1.47563615 11.8776046,2.77981198 8.81762926,4.08387145 C6.91441204,4.89498108 5.0111403,5.7057028 3.10797758,6.51704517 C3.0653477,6.53519913 3.02383535,6.5586286 2.98180511,6.57961427 C2.98673862,6.68163332 2.96814938,6.77566152 2.94378166,6.87162925 C2.72891504,7.71757276 2.50742498,8.5601027 2.29531132,9.40744267 C2.27634048,9.48320054 2.23123021,9.52893456 2.21367673,9.60139524 C2.20162915,9.60116249 2.18955432,9.60089096 2.17750674,9.60065822 C2.16360569,9.57439704 2.16870274,9.54379132 2.16870274,9.51489239 C2.16845743,8.2861641 2.16848469,7.05743581 2.16848469,5.82874631 C2.16848469,5.80760548 2.16802132,5.78646465 2.17349997,5.76629358 C2.17679806,5.76505229 2.18017792,5.76443164 2.18358504,5.76443164" id="Fill-7" fill="#C5C5C5"></path>
                <path d="M2.21367945,9.60138748 C2.19871538,9.55255022 2.2170048,9.5105013 2.2279621,9.46763779 C2.46417091,8.54582004 2.70062504,7.62415745 2.93710643,6.70249486 C2.94830904,6.65889432 2.95803977,6.61405249 2.98180784,6.57960651 C3.13024924,6.86394097 3.3008233,7.12174272 3.46242981,7.39025065 C3.6818756,7.75484269 3.90265697,8.11780552 4.12289321,8.48150537 C3.93073164,8.57037443 3.74851887,8.69454286 3.56213577,8.80373816 C3.11201434,9.06743607 2.66309221,9.33524577 2.21367945,9.60138748" id="Fill-9" fill="#F3F3F3"></path>
            </g>
        </g>
    </g>
</svg>